<?xml version="1.0" standalone="no"?><!DOCTYPE svg PUBLIC "-//W3C//DTD SVG 1.1//EN" "http://www.w3.org/Graphics/SVG/1.1/DTD/svg11.dtd"><svg class="icon" width="32px" height="32.00px" viewBox="0 0 1024 1024" version="1.1" xmlns="http://www.w3.org/2000/svg"><path d="M271.36 201.898667a42.666667 42.666667 0 0 1 0.896 60.330666C207.701333 328.789333 170.666667 419.242667 170.666667 515.968c0 197.290667 153.173333 356.522667 341.333333 356.522667s341.333333-159.232 341.333333-356.522667c0-93.738667-34.730667-181.589333-95.786666-247.637333a42.666667 42.666667 0 0 1 62.634666-57.898667C895.744 292.138667 938.666667 400.64 938.666667 515.968c0 243.669333-190.634667 441.856-426.666667 441.856S85.333333 759.637333 85.333333 515.968c0-119.04 45.738667-230.784 125.696-313.173333a42.666667 42.666667 0 0 1 60.330667-0.896zM512 85.333333c23.552 0 42.666667 21.205333 42.666667 47.402667v331.861333c0 26.197333-19.114667 47.402667-42.666667 47.402667s-42.666667-21.205333-42.666667-47.402667V132.693333C469.333333 106.538667 488.448 85.333333 512 85.333333z" /></svg>