<?xml version="1.0" standalone="no"?><!DOCTYPE svg PUBLIC "-//W3C//DTD SVG 1.1//EN" "http://www.w3.org/Graphics/SVG/1.1/DTD/svg11.dtd"><svg class="icon" width="32px" height="32.00px" viewBox="0 0 1024 1024" version="1.1" xmlns="http://www.w3.org/2000/svg"><path d="M749.65965 612.53498c12.816984 4.130689 17.993624 17.35829 17.574834 35.14354-5.961103 6.433006-7.789474 16.210196-16.318467 20.08144-14.173451 6.435049-51.980898 2.512734-71.543449 2.512734h-166.941522c-21.129433 0-63.647745 4.443248-79.077563-2.512734-6.222591-2.825293-9.15207-10.512623-13.807777-15.062101-0.625119-8.784353-0.418789-17.415491 0-26.357145 3.139895-2.406504 3.558684-6.118404 6.277748-8.786396 3.609756-3.554599 9.832347-4.341105 13.807777-7.534115H724.560915c8.733281 0 19.866938-1.148095 25.098735 2.514777zM764.725837 470.696278c1.201209 2.980551 4.443248 10.04072 2.508647 16.318468-9.621931 31.272297-46.021838 23.846454-85.349182 23.846455H440.887598c-9.72816-2.82325-14.853728-11.39923-21.339849-17.572792-0.78242-7.895703-3.137853-20.34497 1.256366-26.359188 3.39934-10.093834 11.977363-11.1929 18.829159-17.572792h254.801395c36.555166 0.002043 59.147296-6.116361 70.291168 21.339849z"  /><path d="M959.274742 672.781341c0 35.979076 4.759894 81.482024-2.508648 112.968823v10.042763c-5.5464 19.560507-16.735214 37.815618-27.615554 52.718375-13.386945 18.355212-45.500906 36.978041-70.287082 43.927894-16.737257 4.710865-40.900356-0.627162-57.745885 2.512734v2.508647c-2.508648 12.134664-5.015253 24.271372-7.527987 36.403994-13.54629 33.311084-39.697104 65.631374-72.801857 79.073477-38.908555 15.791407-105.696196 10.04072-159.407408 10.04072H179.800283c-28.555276-6.639337-49.319035-16.526841-69.036843-31.378526-5.910031-4.445291-10.563695-11.552446-15.062102-17.570749-9.832347-13.23373-20.972132-27.509325-26.359187-45.190389-10.825183-35.454057-5.021381-89.796517-5.021382-133.046177V392.875082c0-61.085982-7.740445-139.955173 10.042763-185.768638C88.798471 169.973145 121.118762 145.235999 159.7168 131.791853c13.074386-4.547435 56.953251 2.04083 64.013419-6.273663 3.97543-5.333941 1.46474-16.63307 3.767058-23.848497 4.757851-15.011029 10.720996-30.489877 18.825073-42.677655 13.023314-19.613622 35.145584-39.225201 57.739757-48.951318C314.057883 5.75273 330.008634 6.067332 339.213819 0h396.640096c11.822105 18.095767 31.016938 31.85043 43.927894 48.951318 37.294686 49.370107 83.265452 91.210185 120.502938 140.580292 12.549368 16.63307 28.606348 30.700292 41.421289 47.699037 4.911066 6.537193 14.800613 11.611689 17.568706 20.081439v415.469255z m-61.500686-311.284785c0-13.54629 0.943807-29.917872-1.256366-41.423332l-3.765015-1.254324c-5.597471-3.39934-20.812788-1.256367-28.867836-1.256366h-80.333929c-41.102601-9.309371-72.17061-30.647178-91.626931-61.502729-21.133519-33.629772-17.574835-82.162301-17.574835-136.81732 0-13.44006 3.139895-52.665261-5.021381-56.481347-4.862037-3.033666-17.885351-1.256367-25.102821-1.256367H344.233157c-4.810965 3.39934-10.144906 2.510691-16.318468 5.021382-13.544247 5.44017-29.284582 20.710644-35.14354 33.889217-6.275705 14.067222-5.021381 35.774788-5.021382 56.485432v623.825938c5.021381 18.306183 19.76888 37.08427 35.143541 45.190389 25.995556 13.648433 90.636137 7.530029 129.287291 7.530029h298.731332c55.073808 0 109.9372 5.493285 133.054348-26.353059 20.132511-27.774899 13.805734-88.180604 13.805734-135.560953V436.811147l0.002043-75.314591z m-3.765014-105.436751c0.678234-1.987715 0.98875-3.033666 1.256366-6.277748-7.693459-4.236918-11.194943-11.977363-16.318467-18.825073-9.991691-13.284802-22.3858-25.262165-32.636936-38.912641-3.7119-4.915152-10.091792-8.839511-13.811863-13.805734-20.500229-27.35611-43.45599-51.725539-64.009334-79.077563-8.106119-10.827226-19.143761-19.352134-26.359187-31.380569h-5.021382c-4.651621 13.650476-1.254324 37.758418-1.254324 53.972699 0 18.463484-3.033666 41.370217 1.254324 57.739757 7.895703 30.228389 25.52161 62.863282 51.462009 75.310505 7.064254 3.401383 22.018083 1.256367 31.378526 1.256367h74.060268z m-156.900803 640.142363h-1.254324v-1.250238c-31.958702-3.558684-70.080751-1.256367-104.180384-1.256367H361.805949c-12.132622-0.418789-24.265243-0.837578-36.399907-1.250238-39.014785-11.194943-73.584278-39.38863-89.120326-74.058225-16.788329-37.396829-11.295044-102.249869-11.295044-155.646478V350.199469v-114.221104c0-12.919128 3.295154-37.186414-1.256367-43.934022v-1.254324H188.588722c-4.08166 2.459619-12.970199 0.680277-17.574835 2.510691C153.86397 200.201534 138.278893 214.4281 130.853051 230.956984c-5.75273 12.86397-3.767057 33.625686-3.767058 51.462009v582.404649c0 18.939474-1.777299 40.060736 3.767058 53.974742 8.365564 21.021161 30.177317 36.818696 53.972699 42.677655H680.626892c28.969979-7.325742 56.481347-29.133409 56.481347-65.273871z"  /></svg>