<?xml version="1.0" standalone="no"?><!DOCTYPE svg PUBLIC "-//W3C//DTD SVG 1.1//EN" "http://www.w3.org/Graphics/SVG/1.1/DTD/svg11.dtd"><svg class="icon" width="32px" height="32.00px" viewBox="0 0 1024 1024" version="1.1" xmlns="http://www.w3.org/2000/svg"><path d="M922.697143 123.465143V945.005714H101.302857V123.465143h821.394286z m0-78.555429H101.302857C57.782857 44.909714 22.674286 80.018286 22.674286 123.465143V945.005714c0 43.446857 35.108571 78.555429 78.555428 78.555429h821.540572c43.446857 0 78.555429-35.108571 78.555428-78.555429V123.465143A78.628571 78.628571 0 0 0 922.697143 44.909714z m-170.715429 450.56H551.789714V295.277714a39.277714 39.277714 0 1 0-78.555428 0v200.192H272.091429a39.277714 39.277714 0 1 0 0 78.555429H473.234286v199.094857a39.277714 39.277714 0 0 0 78.555428 0V574.025143h200.118857a39.277714 39.277714 0 1 0 0-78.555429z" /></svg>